<svg width="840" height="467" viewBox="0 0 840 467" fill="none" xmlns="http://www.w3.org/2000/svg">
<path d="M45.2559 233.345L222.033 56.5679C228.281 50.3195 238.412 50.3195 244.66 56.5679L421.437 233.345L244.66 410.121C238.412 416.37 228.281 416.37 222.033 410.121L45.2559 233.345Z" fill="#EEEEEE" stroke="#4A6E9E" stroke-width="12"/>
<path d="M161.927 116.673L147.582 170.21L108.39 131.018L161.927 116.673Z" fill="#4A6E9E"/>
<path d="M350.018 304.763L335.673 358.3L296.481 319.108L350.018 304.763Z" fill="#4A6E9E"/>
<path d="M350.018 161.927L296.481 147.582L335.673 108.39L350.018 161.927Z" fill="#4A6E9E"/>
<path d="M161.927 350.018L108.39 335.673L147.582 296.481L161.927 350.018Z" fill="#4A6E9E"/>
<line x1="233" y1="55.9971" x2="234.011" y2="409.997" stroke="#4A6E9E" stroke-width="2" stroke-dasharray="20 20"/>
<path d="M418.256 233.345L595.033 56.5679C601.281 50.3195 611.412 50.3195 617.66 56.5679L794.437 233.345L617.66 410.121C611.412 416.37 601.281 416.37 595.033 410.121L418.256 233.345Z" fill="#EEEEEE" stroke="#4A6E9E" stroke-width="12"/>
<path d="M534.927 116.673L520.582 170.21L481.39 131.018L534.927 116.673Z" fill="#4A6E9E"/>
<path d="M723.018 304.763L708.673 358.3L669.481 319.108L723.018 304.763Z" fill="#4A6E9E"/>
<path d="M723.018 161.927L669.481 147.582L708.673 108.39L723.018 161.927Z" fill="#4A6E9E"/>
<path d="M534.927 350.018L481.39 335.673L520.582 296.481L534.927 350.018Z" fill="#4A6E9E"/>
<line x1="606.345" y1="56.3424" x2="607.356" y2="410.342" stroke="#4A6E9E" stroke-width="2" stroke-dasharray="20 20"/>
<circle cx="45" cy="233" r="16" fill="#EEEEEE" stroke="#4A6E9E" stroke-width="12"/>
<circle cx="417" cy="233" r="16" fill="#EEEEEE" stroke="#4A6E9E" stroke-width="12"/>
<circle cx="794" cy="233" r="16" fill="#EEEEEE" stroke="#4A6E9E" stroke-width="12"/>
<path d="M106.407 416V403.203H110.345C111.47 403.203 112.475 403.458 113.359 403.968C114.25 404.472 114.944 405.192 115.442 406.13C115.94 407.062 116.189 408.122 116.189 409.312V409.9C116.189 411.09 115.943 412.147 115.451 413.073C114.965 413.999 114.276 414.717 113.386 415.227C112.495 415.736 111.49 415.994 110.371 416H106.407ZM109.044 405.339V413.882H110.318C111.35 413.882 112.138 413.545 112.683 412.871C113.228 412.197 113.506 411.233 113.518 409.979V409.303C113.518 408.002 113.248 407.018 112.709 406.35C112.17 405.676 111.382 405.339 110.345 405.339H109.044ZM120.628 416H118.079V406.49H120.628V416ZM117.93 404.029C117.93 403.648 118.056 403.335 118.308 403.089C118.565 402.843 118.914 402.72 119.354 402.72C119.787 402.72 120.133 402.843 120.391 403.089C120.648 403.335 120.777 403.648 120.777 404.029C120.777 404.416 120.646 404.732 120.382 404.979C120.124 405.225 119.781 405.348 119.354 405.348C118.926 405.348 118.58 405.225 118.316 404.979C118.059 404.732 117.93 404.416 117.93 404.029ZM127.879 413.372C127.879 413.062 127.724 412.818 127.413 412.643C127.108 412.461 126.616 412.3 125.937 412.159C123.675 411.685 122.544 410.724 122.544 409.276C122.544 408.433 122.893 407.729 123.59 407.167C124.293 406.599 125.21 406.314 126.341 406.314C127.548 406.314 128.512 406.599 129.232 407.167C129.959 407.735 130.322 408.474 130.322 409.382H127.782C127.782 409.019 127.665 408.72 127.431 408.485C127.196 408.245 126.83 408.125 126.332 408.125C125.904 408.125 125.573 408.222 125.339 408.415C125.104 408.608 124.987 408.854 124.987 409.153C124.987 409.435 125.119 409.663 125.383 409.839C125.652 410.009 126.104 410.158 126.736 410.287C127.369 410.41 127.902 410.551 128.336 410.709C129.678 411.201 130.349 412.054 130.349 413.267C130.349 414.134 129.977 414.837 129.232 415.376C128.488 415.909 127.527 416.176 126.35 416.176C125.553 416.176 124.844 416.035 124.223 415.754C123.607 415.467 123.124 415.077 122.772 414.585C122.421 414.087 122.245 413.551 122.245 412.977H124.653C124.677 413.428 124.844 413.773 125.154 414.014C125.465 414.254 125.881 414.374 126.402 414.374C126.889 414.374 127.255 414.283 127.501 414.102C127.753 413.914 127.879 413.671 127.879 413.372ZM135.947 414.128C136.416 414.128 136.797 413.999 137.09 413.741C137.383 413.483 137.535 413.141 137.547 412.713H139.929C139.923 413.357 139.747 413.949 139.401 414.488C139.056 415.021 138.581 415.438 137.978 415.736C137.38 416.029 136.718 416.176 135.991 416.176C134.632 416.176 133.56 415.745 132.774 414.884C131.989 414.017 131.597 412.821 131.597 411.298V411.131C131.597 409.666 131.986 408.497 132.766 407.624C133.545 406.751 134.614 406.314 135.974 406.314C137.163 406.314 138.115 406.654 138.83 407.334C139.551 408.008 139.917 408.907 139.929 410.032H137.547C137.535 409.54 137.383 409.142 137.09 408.837C136.797 408.526 136.41 408.371 135.93 408.371C135.338 408.371 134.89 408.588 134.585 409.021C134.286 409.449 134.137 410.146 134.137 411.113V411.377C134.137 412.355 134.286 413.059 134.585 413.486C134.884 413.914 135.338 414.128 135.947 414.128ZM140.983 411.157C140.983 410.214 141.165 409.373 141.528 408.635C141.892 407.896 142.413 407.325 143.093 406.921C143.778 406.517 144.572 406.314 145.475 406.314C146.758 406.314 147.804 406.707 148.612 407.492C149.427 408.277 149.881 409.344 149.975 410.691L149.992 411.342C149.992 412.801 149.585 413.973 148.771 414.857C147.956 415.736 146.863 416.176 145.492 416.176C144.121 416.176 143.025 415.736 142.205 414.857C141.391 413.979 140.983 412.783 140.983 411.271V411.157ZM143.523 411.342C143.523 412.244 143.693 412.936 144.033 413.416C144.373 413.891 144.859 414.128 145.492 414.128C146.107 414.128 146.588 413.894 146.934 413.425C147.279 412.95 147.452 412.194 147.452 411.157C147.452 410.272 147.279 409.587 146.934 409.101C146.588 408.614 146.102 408.371 145.475 408.371C144.854 408.371 144.373 408.614 144.033 409.101C143.693 409.581 143.523 410.328 143.523 411.342ZM154.976 412.897L156.742 406.49H159.396L156.188 416H153.763L150.555 406.49H153.209L154.976 412.897ZM164.775 416.176C163.381 416.176 162.244 415.748 161.365 414.893C160.492 414.037 160.056 412.897 160.056 411.474V411.228C160.056 410.272 160.24 409.42 160.609 408.67C160.979 407.914 161.5 407.334 162.174 406.93C162.854 406.52 163.627 406.314 164.494 406.314C165.795 406.314 166.817 406.725 167.562 407.545C168.312 408.365 168.687 409.528 168.687 411.034V412.071H162.631C162.713 412.692 162.959 413.19 163.369 413.565C163.785 413.94 164.31 414.128 164.942 414.128C165.921 414.128 166.686 413.773 167.236 413.064L168.484 414.462C168.104 415.001 167.588 415.423 166.938 415.728C166.287 416.026 165.566 416.176 164.775 416.176ZM164.485 408.371C163.981 408.371 163.571 408.541 163.255 408.881C162.944 409.221 162.745 409.707 162.657 410.34H166.19V410.138C166.179 409.575 166.026 409.142 165.733 408.837C165.44 408.526 165.024 408.371 164.485 408.371ZM175.48 408.872C175.135 408.825 174.83 408.802 174.566 408.802C173.605 408.802 172.976 409.127 172.677 409.777V416H170.137V406.49H172.536L172.606 407.624C173.116 406.751 173.822 406.314 174.725 406.314C175.006 406.314 175.27 406.353 175.516 406.429L175.48 408.872Z" fill="#2A3A54"/>
<path d="M303.53 416V403.203H307.468C308.593 403.203 309.598 403.458 310.482 403.968C311.373 404.472 312.067 405.192 312.565 406.13C313.063 407.062 313.312 408.122 313.312 409.312V409.9C313.312 411.09 313.066 412.147 312.574 413.073C312.088 413.999 311.399 414.717 310.509 415.227C309.618 415.736 308.613 415.994 307.494 416H303.53ZM306.167 405.339V413.882H307.441C308.473 413.882 309.261 413.545 309.806 412.871C310.351 412.197 310.629 411.233 310.641 409.979V409.303C310.641 408.002 310.371 407.018 309.832 406.35C309.293 405.676 308.505 405.339 307.468 405.339H306.167ZM319.447 416.176C318.053 416.176 316.916 415.748 316.037 414.893C315.164 414.037 314.728 412.897 314.728 411.474V411.228C314.728 410.272 314.912 409.42 315.281 408.67C315.65 407.914 316.172 407.334 316.846 406.93C317.525 406.52 318.299 406.314 319.166 406.314C320.467 406.314 321.489 406.725 322.233 407.545C322.983 408.365 323.358 409.528 323.358 411.034V412.071H317.303C317.385 412.692 317.631 413.19 318.041 413.565C318.457 413.94 318.981 414.128 319.614 414.128C320.593 414.128 321.357 413.773 321.908 413.064L323.156 414.462C322.775 415.001 322.26 415.423 321.609 415.728C320.959 416.026 320.238 416.176 319.447 416.176ZM319.157 408.371C318.653 408.371 318.243 408.541 317.927 408.881C317.616 409.221 317.417 409.707 317.329 410.34H320.862V410.138C320.851 409.575 320.698 409.142 320.405 408.837C320.112 408.526 319.696 408.371 319.157 408.371ZM325.424 416V408.354H324.009V406.49H325.424V406.051C325.436 404.855 325.802 403.936 326.522 403.291C327.249 402.641 328.271 402.315 329.59 402.315C330.381 402.315 331.342 402.488 332.473 402.834L332.104 404.935C331.529 404.765 331.084 404.656 330.768 404.609C330.451 404.557 330.111 404.53 329.748 404.53C328.564 404.53 327.973 405.055 327.973 406.104V406.49H329.845V408.354H327.973V416H325.424ZM333.659 416H331.11V406.49H333.659V416ZM338.098 406.49L338.177 407.589C338.856 406.739 339.768 406.314 340.91 406.314C341.918 406.314 342.668 406.61 343.16 407.202C343.652 407.794 343.904 408.679 343.916 409.856V416H341.376V409.918C341.376 409.379 341.259 408.989 341.024 408.749C340.79 408.503 340.4 408.38 339.855 408.38C339.141 408.38 338.604 408.685 338.247 409.294V416H335.707V406.49H338.098ZM350.227 416.176C348.832 416.176 347.695 415.748 346.816 414.893C345.943 414.037 345.507 412.897 345.507 411.474V411.228C345.507 410.272 345.691 409.42 346.061 408.67C346.43 407.914 346.951 407.334 347.625 406.93C348.305 406.52 349.078 406.314 349.945 406.314C351.246 406.314 352.269 406.725 353.013 407.545C353.763 408.365 354.138 409.528 354.138 411.034V412.071H348.082C348.164 412.692 348.41 413.19 348.82 413.565C349.236 413.94 349.761 414.128 350.394 414.128C351.372 414.128 352.137 413.773 352.688 413.064L353.936 414.462C353.555 415.001 353.039 415.423 352.389 415.728C351.738 416.026 351.018 416.176 350.227 416.176ZM349.937 408.371C349.433 408.371 349.022 408.541 348.706 408.881C348.396 409.221 348.196 409.707 348.108 410.34H351.642V410.138C351.63 409.575 351.478 409.142 351.185 408.837C350.892 408.526 350.476 408.371 349.937 408.371Z" fill="#2A3A54"/>
<path d="M482.57 416V403.203H486.508C487.633 403.203 488.638 403.458 489.522 403.968C490.413 404.472 491.107 405.192 491.605 406.13C492.104 407.062 492.353 408.122 492.353 409.312V409.9C492.353 411.09 492.106 412.147 491.614 413.073C491.128 413.999 490.439 414.717 489.549 415.227C488.658 415.736 487.653 415.994 486.534 416H482.57ZM485.207 405.339V413.882H486.481C487.513 413.882 488.301 413.545 488.846 412.871C489.391 412.197 489.669 411.233 489.681 409.979V409.303C489.681 408.002 489.411 407.018 488.872 406.35C488.333 405.676 487.545 405.339 486.508 405.339H485.207ZM498.487 416.176C497.093 416.176 495.956 415.748 495.077 414.893C494.204 414.037 493.768 412.897 493.768 411.474V411.228C493.768 410.272 493.952 409.42 494.321 408.67C494.69 407.914 495.212 407.334 495.886 406.93C496.565 406.52 497.339 406.314 498.206 406.314C499.507 406.314 500.529 406.725 501.273 407.545C502.023 408.365 502.398 409.528 502.398 411.034V412.071H496.343C496.425 412.692 496.671 413.19 497.081 413.565C497.497 413.94 498.021 414.128 498.654 414.128C499.633 414.128 500.397 413.773 500.948 413.064L502.196 414.462C501.815 415.001 501.3 415.423 500.649 415.728C499.999 416.026 499.278 416.176 498.487 416.176ZM498.197 408.371C497.693 408.371 497.283 408.541 496.967 408.881C496.656 409.221 496.457 409.707 496.369 410.34H499.902V410.138C499.891 409.575 499.738 409.142 499.445 408.837C499.152 408.526 498.736 408.371 498.197 408.371ZM507.285 412.897L509.052 406.49H511.706L508.498 416H506.072L502.864 406.49H505.519L507.285 412.897ZM517.085 416.176C515.69 416.176 514.554 415.748 513.675 414.893C512.802 414.037 512.365 412.897 512.365 411.474V411.228C512.365 410.272 512.55 409.42 512.919 408.67C513.288 407.914 513.81 407.334 514.483 406.93C515.163 406.52 515.937 406.314 516.804 406.314C518.104 406.314 519.127 406.725 519.871 407.545C520.621 408.365 520.996 409.528 520.996 411.034V412.071H514.94C515.022 412.692 515.269 413.19 515.679 413.565C516.095 413.94 516.619 414.128 517.252 414.128C518.23 414.128 518.995 413.773 519.546 413.064L520.794 414.462C520.413 415.001 519.897 415.423 519.247 415.728C518.597 416.026 517.876 416.176 517.085 416.176ZM516.795 408.371C516.291 408.371 515.881 408.541 515.564 408.881C515.254 409.221 515.055 409.707 514.967 410.34H518.5V410.138C518.488 409.575 518.336 409.142 518.043 408.837C517.75 408.526 517.334 408.371 516.795 408.371ZM525.127 416H522.578V402.5H525.127V416ZM526.832 411.157C526.832 410.214 527.014 409.373 527.377 408.635C527.74 407.896 528.262 407.325 528.941 406.921C529.627 406.517 530.421 406.314 531.323 406.314C532.606 406.314 533.652 406.707 534.461 407.492C535.275 408.277 535.729 409.344 535.823 410.691L535.841 411.342C535.841 412.801 535.434 413.973 534.619 414.857C533.805 415.736 532.712 416.176 531.341 416.176C529.97 416.176 528.874 415.736 528.054 414.857C527.239 413.979 526.832 412.783 526.832 411.271V411.157ZM529.372 411.342C529.372 412.244 529.542 412.936 529.882 413.416C530.222 413.891 530.708 414.128 531.341 414.128C531.956 414.128 532.437 413.894 532.782 413.425C533.128 412.95 533.301 412.194 533.301 411.157C533.301 410.272 533.128 409.587 532.782 409.101C532.437 408.614 531.95 408.371 531.323 408.371C530.702 408.371 530.222 408.614 529.882 409.101C529.542 409.581 529.372 410.328 529.372 411.342ZM545.966 411.333C545.966 412.798 545.632 413.973 544.964 414.857C544.302 415.736 543.405 416.176 542.274 416.176C541.313 416.176 540.537 415.842 539.945 415.174V419.656H537.405V406.49H539.761L539.849 407.422C540.464 406.684 541.267 406.314 542.257 406.314C543.429 406.314 544.34 406.748 544.99 407.615C545.641 408.482 545.966 409.678 545.966 411.201V411.333ZM543.426 411.148C543.426 410.264 543.268 409.581 542.951 409.101C542.641 408.62 542.187 408.38 541.589 408.38C540.792 408.38 540.244 408.685 539.945 409.294V413.188C540.256 413.814 540.81 414.128 541.606 414.128C542.819 414.128 543.426 413.135 543.426 411.148Z" fill="#2A3A54"/>
<path d="M674.491 416V403.203H678.429C679.554 403.203 680.559 403.458 681.443 403.968C682.334 404.472 683.028 405.192 683.526 406.13C684.024 407.062 684.273 408.122 684.273 409.312V409.9C684.273 411.09 684.027 412.147 683.535 413.073C683.049 413.999 682.36 414.717 681.47 415.227C680.579 415.736 679.574 415.994 678.455 416H674.491ZM677.128 405.339V413.882H678.402C679.434 413.882 680.222 413.545 680.767 412.871C681.312 412.197 681.59 411.233 681.602 409.979V409.303C681.602 408.002 681.332 407.018 680.793 406.35C680.254 405.676 679.466 405.339 678.429 405.339H677.128ZM690.408 416.176C689.014 416.176 687.877 415.748 686.998 414.893C686.125 414.037 685.688 412.897 685.688 411.474V411.228C685.688 410.272 685.873 409.42 686.242 408.67C686.611 407.914 687.133 407.334 687.807 406.93C688.486 406.52 689.26 406.314 690.127 406.314C691.428 406.314 692.45 406.725 693.194 407.545C693.944 408.365 694.319 409.528 694.319 411.034V412.071H688.264C688.346 412.692 688.592 413.19 689.002 413.565C689.418 413.94 689.942 414.128 690.575 414.128C691.554 414.128 692.318 413.773 692.869 413.064L694.117 414.462C693.736 415.001 693.221 415.423 692.57 415.728C691.92 416.026 691.199 416.176 690.408 416.176ZM690.118 408.371C689.614 408.371 689.204 408.541 688.888 408.881C688.577 409.221 688.378 409.707 688.29 410.34H691.823V410.138C691.812 409.575 691.659 409.142 691.366 408.837C691.073 408.526 690.657 408.371 690.118 408.371ZM698.45 416H695.901V402.5H698.45V416ZM703.231 416H700.683V406.49H703.231V416ZM700.533 404.029C700.533 403.648 700.659 403.335 700.911 403.089C701.169 402.843 701.518 402.72 701.957 402.72C702.391 402.72 702.736 402.843 702.994 403.089C703.252 403.335 703.381 403.648 703.381 404.029C703.381 404.416 703.249 404.732 702.985 404.979C702.728 405.225 702.385 405.348 701.957 405.348C701.529 405.348 701.184 405.225 700.92 404.979C700.662 404.732 700.533 404.416 700.533 404.029ZM708.892 412.897L710.658 406.49H713.312L710.104 416H707.679L704.471 406.49H707.125L708.892 412.897ZM718.691 416.176C717.297 416.176 716.16 415.748 715.281 414.893C714.408 414.037 713.972 412.897 713.972 411.474V411.228C713.972 410.272 714.156 409.42 714.525 408.67C714.895 407.914 715.416 407.334 716.09 406.93C716.77 406.52 717.543 406.314 718.41 406.314C719.711 406.314 720.733 406.725 721.478 407.545C722.228 408.365 722.603 409.528 722.603 411.034V412.071H716.547C716.629 412.692 716.875 413.19 717.285 413.565C717.701 413.94 718.226 414.128 718.858 414.128C719.837 414.128 720.602 413.773 721.152 413.064L722.4 414.462C722.02 415.001 721.504 415.423 720.854 415.728C720.203 416.026 719.482 416.176 718.691 416.176ZM718.401 408.371C717.897 408.371 717.487 408.541 717.171 408.881C716.86 409.221 716.661 409.707 716.573 410.34H720.106V410.138C720.095 409.575 719.942 409.142 719.649 408.837C719.356 408.526 718.94 408.371 718.401 408.371ZM729.396 408.872C729.051 408.825 728.746 408.802 728.482 408.802C727.521 408.802 726.892 409.127 726.593 409.777V416H724.053V406.49H726.452L726.522 407.624C727.032 406.751 727.738 406.314 728.641 406.314C728.922 406.314 729.186 406.353 729.432 406.429L729.396 408.872Z" fill="#2A3A54"/>
</svg>
